<?xml version="1.0" encoding="UTF-8" standalone="no"?>
<svg
   viewBox="0,0,256,256"
   width="30px"
   height="30px"
   fill-rule="nonzero"
   version="1.1"
   id="svg2"
   sodipodi:docname="icons8-search.svg"
   inkscape:version="1.4 (86a8ad7, 2024-10-11)"
   xmlns:inkscape="http://www.inkscape.org/namespaces/inkscape"
   xmlns:sodipodi="http://sodipodi.sourceforge.net/DTD/sodipodi-0.dtd"
   xmlns="http://www.w3.org/2000/svg"
   xmlns:svg="http://www.w3.org/2000/svg">
  <defs
     id="defs2" />
  <sodipodi:namedview
     id="namedview2"
     pagecolor="#ffffff"
     bordercolor="#000000"
     borderopacity="0.25"
     inkscape:showpageshadow="2"
     inkscape:pageopacity="0.0"
     inkscape:pagecheckerboard="0"
     inkscape:deskcolor="#d1d1d1"
     inkscape:zoom="31.366667"
     inkscape:cx="15"
     inkscape:cy="15"
     inkscape:window-width="2048"
     inkscape:window-height="1201"
     inkscape:window-x="-9"
     inkscape:window-y="-9"
     inkscape:window-maximized="1"
     inkscape:current-layer="svg2" />
  <g
     fill="#ffffff"
     fill-rule="nonzero"
     stroke="none"
     stroke-width="1"
     stroke-linecap="butt"
     stroke-linejoin="miter"
     stroke-miterlimit="10"
     stroke-dasharray=""
     stroke-dashoffset="0"
     font-family="none"
     font-weight="none"
     font-size="none"
     text-anchor="none"
     style="mix-blend-mode:normal;fill:#ffffff;fill-opacity:1"
     id="g2">
    <g
       transform="scale(8.53333,8.53333)"
       id="g1"
       style="fill:#ffffff;fill-opacity:1">
      <path
         d="M13,3c-5.511,0 -10,4.489 -10,10c0,5.511 4.489,10 10,10c2.39651,0 4.59738,-0.85101 6.32227,-2.26367l5.9707,5.9707c0.25082,0.26124 0.62327,0.36648 0.97371,0.27512c0.35044,-0.09136 0.62411,-0.36503 0.71547,-0.71547c0.09136,-0.35044 -0.01388,-0.72289 -0.27512,-0.97371l-5.9707,-5.9707c1.41266,-1.72488 2.26367,-3.92576 2.26367,-6.32227c0,-5.511 -4.489,-10 -10,-10zM13,5c4.43012,0 8,3.56988 8,8c0,4.43012 -3.56988,8 -8,8c-4.43012,0 -8,-3.56988 -8,-8c0,-4.43012 3.56988,-8 8,-8z"
         id="path1"
         style="fill:#ffffff;fill-opacity:1" />
    </g>
  </g>
</svg>
